<svg width="200" height="200" viewBox="0 0 200 200" fill="none" xmlns="http://www.w3.org/2000/svg">
  <!-- Background Circle -->
  <circle cx="100" cy="100" r="90" fill="#0891b2" opacity="0.1"/>

  <!-- Central Hub Circle -->
  <circle cx="100" cy="100" r="20" fill="#0891b2"/>

  <!-- Connection Lines -->
  <line x1="100" y1="100" x2="100" y2="40" stroke="#0891b2" stroke-width="4" stroke-linecap="round"/>
  <line x1="100" y1="100" x2="160" y2="100" stroke="#0891b2" stroke-width="4" stroke-linecap="round"/>
  <line x1="100" y1="100" x2="100" y2="160" stroke="#0891b2" stroke-width="4" stroke-linecap="round"/>
  <line x1="100" y1="100" x2="40" y2="100" stroke="#0891b2" stroke-width="4" stroke-linecap="round"/>

  <!-- Diagonal Lines -->
  <line x1="100" y1="100" x2="142" y2="58" stroke="#0891b2" stroke-width="4" stroke-linecap="round" opacity="0.6"/>
  <line x1="100" y1="100" x2="142" y2="142" stroke="#0891b2" stroke-width="4" stroke-linecap="round" opacity="0.6"/>
  <line x1="100" y1="100" x2="58" y2="142" stroke="#0891b2" stroke-width="4" stroke-linecap="round" opacity="0.6"/>
  <line x1="100" y1="100" x2="58" y2="58" stroke="#0891b2" stroke-width="4" stroke-linecap="round" opacity="0.6"/>

  <!-- Outer Nodes (Test Elements) -->
  <!-- Top Node - Test Case -->
  <circle cx="100" cy="40" r="12" fill="#ffffff" stroke="#0891b2" stroke-width="3"/>
  <path d="M95 40 L98 43 L105 36" stroke="#0891b2" stroke-width="2" stroke-linecap="round" stroke-linejoin="round" fill="none"/>

  <!-- Right Node - Test Plan -->
  <circle cx="160" cy="100" r="12" fill="#ffffff" stroke="#0891b2" stroke-width="3"/>
  <rect x="155" y="96" width="10" height="2" fill="#0891b2" rx="1"/>
  <rect x="155" y="100" width="10" height="2" fill="#0891b2" rx="1"/>
  <rect x="155" y="104" width="10" height="2" fill="#0891b2" rx="1"/>

  <!-- Bottom Node - Test Run -->
  <circle cx="100" cy="160" r="12" fill="#ffffff" stroke="#0891b2" stroke-width="3"/>
  <path d="M97 156 L97 164 L103 160 Z" fill="#0891b2"/>

  <!-- Left Node - Report -->
  <circle cx="40" cy="100" r="12" fill="#ffffff" stroke="#0891b2" stroke-width="3"/>
  <rect x="35" y="96" width="10" height="8" fill="none" stroke="#0891b2" stroke-width="2" rx="1"/>
  <line x1="37" y1="98" x2="43" y2="98" stroke="#0891b2" stroke-width="1"/>
  <line x1="37" y1="101" x2="43" y2="101" stroke="#0891b2" stroke-width="1"/>

  <!-- Diagonal Nodes -->
  <!-- Top-Right - API -->
  <circle cx="142" cy="58" r="10" fill="#ffffff" stroke="#0891b2" stroke-width="2" opacity="0.8"/>
  <text x="142" y="61" font-family="Arial" font-size="10" font-weight="bold" fill="#0891b2" text-anchor="middle">API</text>

  <!-- Bottom-Right - Bug -->
  <circle cx="142" cy="142" r="10" fill="#ffffff" stroke="#0891b2" stroke-width="2" opacity="0.8"/>
  <path d="M139 139 L145 145 M145 139 L139 145" stroke="#0891b2" stroke-width="2" stroke-linecap="round"/>

  <!-- Bottom-Left - Auto -->
  <circle cx="58" cy="142" r="10" fill="#ffffff" stroke="#0891b2" stroke-width="2" opacity="0.8"/>
  <circle cx="58" cy="142" r="3" fill="#0891b2"/>

  <!-- Top-Left - Analytics -->
  <circle cx="58" cy="58" r="10" fill="#ffffff" stroke="#0891b2" stroke-width="2" opacity="0.8"/>
  <path d="M54 61 L56 59 L58 60 L60 57 L62 59" stroke="#0891b2" stroke-width="1.5" stroke-linecap="round" stroke-linejoin="round" fill="none"/>
</svg>
